<svg xmlns="http://www.w3.org/2000/svg">
	<symbol id="icon-house" viewBox="0 0 39 37" fill="currentColor">
	  <path d="M15.4015 33.2194H23.7549V21.0613H15.4015V33.2194ZM22.2408 31.7441H16.9155V22.5365H22.1886V31.7441H22.2408Z" fill="#81B3D2"/>
    <path d="M37.9036 20.0431L39 18.9748L33.8313 13.9386V0.203483H26.6265V6.91843L19.4739 0L0 19.0257L1.09639 20.094L5.16867 16.126V35.3552H3.13253V36.8305H36.494V35.3552H33.8313V16.0752L37.9036 20.0431ZM28.1406 1.72961H32.2651V12.4633L28.1406 8.44455V1.72961ZM32.3173 35.3043H6.73494V14.5999L19.4739 2.13657L32.2651 14.5999V35.3043H32.3173Z" fill="#81B3D2"/>
    <path d="M15.5582 13.8369C15.5582 16.0243 17.3855 17.8048 19.5783 17.8048C21.8233 17.8048 23.6506 16.0243 23.6506 13.8369C23.6506 11.6494 21.8233 9.9198 19.5783 9.9198C17.3333 9.9198 15.5582 11.6494 15.5582 13.8369ZM19.5783 11.2933C20.9879 11.2933 22.1888 12.4125 22.1888 13.8369C22.1888 15.2104 21.0402 16.3804 19.5783 16.3804C18.1687 16.3804 16.9679 15.2612 16.9679 13.8369C16.9679 12.4633 18.1687 11.2933 19.5783 11.2933Z" fill="#81B3D2"/>
    <path d="M10.3895 21.0613H8.82324V23.0452H10.3895V21.0613Z" fill="#81B3D2"/>
    <path d="M13.4698 21.0613H11.9036V23.0452H13.4698V21.0613Z" fill="#81B3D2"/>
    <path d="M10.3895 24.1128H8.82324V26.0968H10.3895V24.1128Z" fill="#81B3D2"/>
    <path d="M13.4698 24.1128H11.9036V26.0968H13.4698V24.1128Z" fill="#81B3D2"/>
    <path d="M27.0443 21.0613H25.478V23.0452H27.0443V21.0613Z" fill="#81B3D2"/>
    <path d="M30.1769 21.0613H28.6106V23.0452H30.1769V21.0613Z" fill="#81B3D2"/>
    <path d="M27.0443 24.1128H25.478V26.0968H27.0443V24.1128Z" fill="#81B3D2"/>
    <path d="M30.1769 24.1128H28.6106V26.0968H30.1769V24.1128Z" fill="#81B3D2"/>
	</symbol>
	<symbol id="icon-burger" viewBox="0 0 76 68" fill="currentColor">
    <path d="M71.7113 45.3324H4.28871C1.89501 45.3324 0 47.3034 0 49.57V53.0192C0 55.2858 1.89501 57.1582 4.28871 57.1582H5.28609V58.1437C5.28609 63.5639 9.77428 67.9 15.1601 67.9H60.8399C66.3255 67.9 70.7139 63.4653 70.7139 58.1437V57.1582H71.7113C74.0053 57.1582 76 55.2858 76 52.9206V49.4714C76 47.3034 74.105 45.3324 71.7113 45.3324ZM67.8215 58.1437C67.8215 61.8886 64.7297 64.9436 60.9396 64.9436H15.0604C11.2703 64.9436 8.17848 61.8886 8.17848 58.1437V57.1582H67.8215V58.1437ZM73.0079 52.9206C73.0079 53.6105 72.4095 54.2018 71.7113 54.2018H4.28871C3.59055 54.2018 2.99213 53.6105 2.99213 52.9206V49.4714C2.99213 48.8801 3.59055 48.2889 4.28871 48.2889H71.811C72.5092 48.2889 73.1076 48.8801 73.1076 49.57V52.9206H73.0079Z" fill="#81B3D2"/>
    <path d="M16.1575 37.3496L21.5434 41.2915L27.0289 37.3496L32.5145 41.2915L38 37.3496L43.3859 41.2915L48.8714 37.3496L54.357 41.2915L59.8426 37.3496L65.3281 41.2915L71.6116 36.6597L69.9161 34.2946L65.3281 37.5467L59.8426 33.6047L54.357 37.5467L48.8714 33.6047L43.3859 37.5467L38 33.6047L32.5145 37.5467L27.0289 33.6047L21.5434 37.5467L16.1575 33.6047L10.672 37.5467L6.08403 34.2946L4.28876 36.6597L10.672 41.2915L16.1575 37.3496Z" fill="#81B3D2"/>
    <path d="M70.7138 30.6486C70.7138 30.0573 70.8136 28.0864 70.7138 27.6922C70.0157 12.3186 55.6535 0 37.9999 0C20.3464 0 5.88444 12.3186 5.18628 27.6922C5.18628 28.0864 5.18628 30.0573 5.18628 30.6486H70.7138ZM37.9999 2.95646C53.9579 2.95646 67.1233 13.9939 67.7217 27.6922H8.17841C8.87657 13.9939 22.0419 2.95646 37.9999 2.95646Z" fill="#81B3D2"/>
    <path d="M38 16.7532C39.1017 16.7532 39.9948 15.8708 39.9948 14.7823C39.9948 13.6937 39.1017 12.8113 38 12.8113C36.8983 12.8113 36.0052 13.6937 36.0052 14.7823C36.0052 15.8708 36.8983 16.7532 38 16.7532Z" fill="#81B3D2"/>
    <path d="M30.021 11.924C31.1227 11.924 32.0157 11.0416 32.0157 9.95303C32.0157 8.86449 31.1227 7.98206 30.021 7.98206C28.9193 7.98206 28.0262 8.86449 28.0262 9.95303C28.0262 11.0416 28.9193 11.924 30.021 11.924Z" fill="#81B3D2"/>
    <path d="M45.979 11.924C47.0807 11.924 47.9738 11.0416 47.9738 9.95303C47.9738 8.86449 47.0807 7.98206 45.979 7.98206C44.8773 7.98206 43.9843 8.86449 43.9843 9.95303C43.9843 11.0416 44.8773 11.924 45.979 11.924Z" fill="#81B3D2"/>
	</symbol>
	<symbol id="icon-gift" viewBox="0 0 64 75" fill="currentColor">
    <path d="M61.1556 22.1167H61.054H36.3683C50.1841 15.3189 51.3016 11.0202 50.7937 8.62098C49.6762 4.72221 45.1048 1.72316 40.8381 3.32266C35.2508 5.42199 33.727 13.6194 32.2032 19.5175C30.273 13.5194 28.4444 5.92183 24.0762 2.02307C22.8571 0.923414 21.0286 -0.176239 18.2857 0.0236982C14.2222 0.423572 8.43175 5.32202 10.8698 10.8203C13.1048 16.1186 20.5206 19.5175 25.4984 22.2167H2.84444C1.21905 22.2167 0 23.5163 0 25.0158V36.2123C0 37.8118 1.32063 39.0114 2.84444 39.0114H3.14921V75H61.054V39.0114H61.1556C62.781 39.0114 64 37.7118 64 36.2123V25.0158C64 23.4163 62.6794 22.1167 61.1556 22.1167ZM42.4635 5.82187C44.5968 5.52196 47.4413 7.12146 47.746 9.02085C48.1524 11.72 44.3937 14.2192 42.6667 15.3189C40.127 17.0183 37.6889 17.918 35.3524 19.3176C36.1651 15.6188 37.8921 6.42168 42.4635 5.82187ZM19.5048 15.6188C17.2698 14.1192 13.0032 11.2202 13.1048 7.9212C13.2063 4.32234 18.8952 1.42326 21.9429 4.1224C25.8032 7.42136 27.6317 15.1189 29.054 20.5172C25.8032 18.9177 22.7556 17.7181 19.5048 15.6188ZM25.4984 72.0009H6.09524V39.0114H25.4984V72.0009ZM25.4984 36.0123H3.04762V25.1158H25.4984V36.0123ZM35.6571 72.0009H28.4444V25.1158H35.6571V72.0009ZM58.0064 72.0009H38.7048V39.0114H58.1079V72.0009H58.0064ZM60.9524 36.0123H38.7048V25.1158H60.9524V36.0123Z" fill="#81B3D2"/>
	</symbol>
	<symbol id="icon-youtube" viewBox="0 0 46 48" fill="currentColor">
		<rect width="46" height="48" fill="#81B3D2"/>
		<path d="M30.1 17H15.8C14.3 17 13 18.3 13 19.8V28.1C13 29.7 14.3 31 15.8 31H30.1C31.7 31 32.9 29.7 32.9 28.2V19.8C33 18.3 31.7 17 30.1 17ZM20 27.4V20.6L26.8 24L20 27.4Z" fill="white"/>
	</symbol>
	<symbol id="icon-facebook" viewBox="0 0 47 48" fill="currentColor">
		<rect width="47" height="48" fill="#81B3D2"/>
		<path d="M25.3 16.4C26.1 16.4 26.9 16.4 27.7 16.4C27.7 15.3 27.7 14.2 27.7 13C26.7 13 25.8 13 24.8 13C21.7 13.2 20.5 15.4 20.9 19.1H19V22.6H21C21 25.7 21 28.8 21 31.9C22.3 31.9 23.6 31.9 24.8 31.9C24.8 28.8 24.8 25.7 24.8 22.6H27.7V19.1H24.8C24.8 18.1 24.8 16.7 25.3 16.4Z" fill="white"/>
	</symbol>
	<symbol id="icon-twitter" viewBox="0 0 46 48" fill="currentColor">
		<rect width="46" height="48" fill="#81B3D2"/>
		<path d="M25.3 16.1667C27 15.6667 28.4 16.3667 29 17.2667C29.7 17.0667 30.4 16.7667 31.1 16.5667C31.1 17.3667 30.6 18.0667 30.2 18.2667C30.9 18.4667 31.5 17.7667 31.5 17.7667C31.3 18.7667 30.5 19.4667 29.9 19.7667C29.7 26.3667 26.6 30.7667 19.5 30.5667C19 30.5667 19.6 30.5667 19 30.5667C18.6 30.5667 14.7 30.1667 14 28.7667C16.3 28.9667 18 28.3667 18.8 27.6667C17.8 27.3667 16 27.1667 15.7 24.7667C16.1 24.8667 16.3 24.9667 17 24.8667C15.8 24.0667 14.4 23.3667 14.5 21.1667C14.8 21.4667 15.6 21.6667 15.9 21.6667C15.2 21.4667 13.9 18.3667 15 16.8667C16.9 18.6667 18.8 20.3667 22.4 20.5667C22.5 18.2667 23.5 16.7667 25.3 16.1667Z" fill="white"/>
	</symbol>
	<symbol id="icon-mapPin" viewBox="0 0 27 27" fill="currentColor">
		<path d="M13.5 27C20.9558 27 27 20.9558 27 13.5C27 6.04416 20.9558 0 13.5 0C6.04416 0 0 6.04416 0 13.5C0 20.9558 6.04416 27 13.5 27Z" fill="white"/>
		<path d="M13.5 21.8996C18.1392 21.8996 21.9 18.1388 21.9 13.4996C21.9 8.86042 18.1392 5.09961 13.5 5.09961C8.86078 5.09961 5.09998 8.86042 5.09998 13.4996C5.09998 18.1388 8.86078 21.8996 13.5 21.8996Z" fill="#81B3D3"/>
	</symbol>
	<symbol id="icon-like" viewBox="0 0 23 21" fill="currentColor">
		<path opacity="0.3" d="M12.9636 3.78L12.3364 6.825L11.7091 9.45H14.3227H20.8045V11.55C20.8045 11.55 20.8045 11.55 20.8045 11.655L17.7727 18.9H8.36364V8.4L12.9636 3.78ZM2.09091 10.5V18.9V10.5ZM13.8 0L6.9 6.93C6.48182 7.245 6.27273 7.77 6.27273 8.4V18.9C6.27273 20.055 7.21364 21 8.36364 21H17.7727C18.6091 21 19.3409 20.475 19.6545 19.74L22.7909 12.285C22.8955 12.075 22.8955 11.76 22.8955 11.55V9.45H23C23 8.295 22.0591 7.35 20.9091 7.35H14.3227L15.3682 2.52V2.205C15.3682 1.785 15.1591 1.365 14.95 1.05L13.8 0ZM4.18182 8.4H0V21H4.18182V8.4Z" fill="black"/>
	</symbol>
</svg>
