<?xml version="1.0" standalone="no"?>
<!DOCTYPE svg PUBLIC "-//W3C//DTD SVG 20010904//EN"
 "http://www.w3.org/TR/2001/REC-SVG-20010904/DTD/svg10.dtd">
<svg version="1.0" xmlns="http://www.w3.org/2000/svg"
 width="2197.000000pt" height="2191.000000pt" viewBox="0 0 2197.000000 2191.000000"
 preserveAspectRatio="xMidYMid meet">

<g transform="translate(0.000000,2191.000000) scale(0.100000,-0.100000)"
fill="#000000" stroke="none">
<path d="M10891 20599 c-1 -4 -12 -67 -26 -140 -36 -190 -72 -452 -85 -609 -6
-74 -23 -290 -39 -480 -16 -190 -35 -424 -41 -520 -6 -96 -15 -213 -20 -260
-6 -47 -15 -134 -20 -195 -9 -96 -13 -112 -33 -125 -36 -23 -100 -94 -137
-153 l-35 -55 -75 -7 c-122 -11 -227 -34 -354 -76 -142 -48 -210 -81 -294
-144 -35 -26 -64 -46 -66 -44 -2 2 -29 69 -61 149 -70 177 -131 300 -200 405
-177 268 -506 530 -765 611 -44 14 -45 14 -71 -14 -14 -16 -52 -71 -84 -123
-225 -363 -327 -798 -312 -1339 12 -455 78 -818 193 -1069 59 -128 74 -209 99
-543 30 -385 62 -601 121 -793 71 -234 151 -423 249 -591 31 -53 78 -144 105
-203 26 -58 92 -200 147 -316 102 -213 219 -500 268 -655 34 -108 100 -376
122 -494 22 -122 22 -349 -1 -476 -26 -147 -117 -407 -190 -544 l-62 -119
-110 -29 c-99 -25 -126 -28 -304 -30 -182 -2 -201 0 -292 24 -284 77 -479 187
-1013 571 -413 297 -656 507 -1305 1123 -411 390 -530 490 -790 664 -281 187
-505 304 -738 384 -116 40 -163 49 -420 86 -346 48 -401 59 -602 111 -222 57
-452 136 -673 230 -582 248 -950 464 -1312 768 -121 102 -389 365 -485 476
-97 113 -249 313 -261 342 -17 45 -190 293 -231 332 -41 39 -123 75 -151 66
-7 -2 -24 -6 -39 -9 -77 -17 -141 -124 -163 -274 -19 -123 -19 -406 -1 -532
11 -76 21 -108 51 -160 82 -145 213 -307 420 -519 135 -140 138 -143 64 -85
-43 32 -150 124 -240 203 -89 80 -158 138 -154 130 5 -8 41 -54 80 -104 131
-164 321 -328 492 -423 77 -43 187 -86 204 -80 5 2 -91 98 -212 213 -305 289
-405 404 -531 605 -42 68 -48 85 -64 190 -12 78 -18 173 -18 295 0 305 36 445
116 445 39 0 109 -72 172 -175 358 -591 905 -1116 1531 -1471 266 -150 751
-369 1030 -464 361 -123 592 -171 1050 -220 181 -20 456 -118 701 -251 149
-81 462 -288 580 -383 120 -97 279 -240 584 -530 625 -593 853 -786 1320
-1119 319 -228 476 -329 625 -402 144 -71 313 -131 420 -150 l70 -12 -85 -28
c-222 -73 -441 -185 -708 -362 -131 -86 -165 -114 -261 -217 -30 -32 -39 -36
-85 -36 -55 0 -159 17 -301 49 -226 51 -289 86 -283 158 2 31 9 41 35 54 l32
16 -114 37 c-125 41 -234 103 -327 186 -62 55 -66 44 -11 -34 54 -76 159 -145
296 -196 l28 -10 -22 -29 c-27 -37 -21 -68 26 -120 77 -85 311 -150 676 -186
56 -6 57 -7 64 -43 19 -105 128 -347 209 -465 l45 -66 -32 6 c-202 38 -367
119 -700 341 -139 92 -191 122 -197 113 -10 -18 -28 -194 -35 -356 -4 -71 -11
-140 -18 -153 -13 -28 -85 -72 -115 -72 -12 0 -31 9 -43 21 -27 27 -21 64 27
174 20 44 38 85 41 92 2 7 -19 -1 -49 -17 -59 -31 -171 -64 -277 -81 -59 -9
-80 -8 -125 5 -66 20 -143 79 -182 140 -33 51 -44 57 -44 23 0 -83 76 -189
162 -228 71 -31 212 -32 306 -1 34 11 62 19 62 17 0 -1 -7 -19 -15 -38 -29
-69 -13 -146 37 -181 36 -25 99 -20 163 14 32 17 59 29 61 27 2 -1 8 -198 14
-437 18 -728 60 -1318 126 -1773 8 -60 13 -111 10 -114 -10 -11 -103 19 -194
63 -70 34 -109 61 -159 110 l-67 65 51 28 c79 44 109 68 147 120 20 27 36 51
36 55 0 3 -39 -13 -87 -37 -49 -24 -117 -56 -153 -70 -76 -30 -323 -89 -353
-85 -24 3 -35 32 -36 99 -2 89 6 104 83 163 77 59 195 177 215 214 11 20 10
22 -1 15 -7 -4 -60 -39 -117 -77 -57 -38 -173 -108 -257 -156 -170 -97 -228
-114 -298 -85 -33 14 -72 61 -89 107 -13 37 45 183 100 249 l28 34 -30 -23
c-36 -29 -101 -106 -122 -145 -8 -16 -16 -27 -18 -25 -7 7 -87 211 -117 298
-42 124 -70 240 -64 265 4 14 48 50 118 98 62 42 136 97 163 122 l50 47 -45
-26 c-160 -93 -429 -210 -554 -242 l-28 -7 22 44 c47 91 76 209 52 209 -5 0
-16 -16 -25 -35 -30 -62 -150 -176 -272 -258 -73 -49 -226 -31 -241 28 -21 83
45 455 100 563 15 30 26 60 24 67 -3 15 -167 -73 -348 -188 -57 -36 -106 -65
-107 -63 -2 2 14 41 36 87 70 153 62 176 -14 37 -27 -51 -71 -113 -96 -140
-40 -43 -50 -48 -88 -48 -100 0 -139 61 -126 200 13 152 31 182 163 271 39 27
72 51 72 54 0 2 -17 -3 -37 -11 -20 -9 -105 -40 -187 -69 -83 -30 -194 -70
-246 -90 -154 -59 -292 -79 -370 -52 -45 16 -69 59 -77 141 -5 61 -4 69 18 92
23 25 149 115 249 177 l45 29 -35 -6 c-63 -11 -216 -97 -338 -191 l-52 -40 6
-64 c10 -102 29 -154 73 -194 57 -52 95 -60 235 -54 127 5 237 32 337 83 l46
23 -5 -118 c-6 -142 10 -191 78 -240 118 -85 229 -63 485 98 54 34 98 61 99
61 2 0 -8 -46 -20 -102 -46 -204 -41 -353 14 -411 38 -42 81 -57 158 -57 73 0
82 5 237 129 37 29 70 51 74 48 7 -8 -37 -69 -96 -129 -25 -27 -42 -48 -39
-48 31 0 135 31 246 72 73 28 134 49 135 47 2 -2 17 -55 35 -117 41 -144 88
-271 165 -447 74 -168 118 -220 210 -250 55 -18 59 -19 125 -2 37 10 88 29
115 42 l47 24 0 -53 c0 -74 25 -152 56 -172 31 -21 125 -13 255 22 88 23 93
24 102 7 5 -10 42 -50 81 -88 104 -102 292 -195 395 -195 l49 0 22 -117 c108
-583 249 -940 550 -1388 295 -440 711 -889 1575 -1701 569 -534 738 -710 1007
-1049 198 -250 666 -879 704 -948 9 -16 13 -14 36 21 51 77 384 531 511 697
394 514 550 682 1197 1290 776 729 1107 1076 1413 1480 388 513 559 891 680
1501 l42 212 60 4 c145 10 372 144 461 271 l20 28 84 -24 c112 -33 211 -43
250 -27 37 15 60 83 60 173 0 32 3 57 8 55 74 -38 128 -59 178 -69 54 -11 67
-10 107 5 85 32 109 56 164 161 80 153 188 438 224 590 6 28 15 54 19 58 4 5
62 -12 129 -37 110 -42 240 -80 248 -72 2 2 -21 31 -52 65 -61 68 -90 109 -83
116 2 3 32 -17 65 -44 34 -27 89 -70 124 -95 60 -44 66 -46 129 -46 90 0 147
29 178 90 22 42 23 53 18 165 -2 66 -14 162 -25 214 -12 52 -20 96 -18 97 1 2
36 -19 77 -45 246 -156 355 -189 458 -137 60 31 98 68 114 114 13 41 16 176 5
234 l-8 36 83 -35 c118 -49 226 -73 337 -73 116 0 165 14 212 61 39 39 55 85
66 190 6 58 5 62 -23 85 -113 95 -331 220 -371 212 -13 -2 -6 -10 28 -30 54
-32 191 -126 234 -162 28 -23 30 -28 28 -86 -3 -79 -27 -129 -73 -153 -65 -34
-235 -11 -391 53 -41 17 -138 53 -216 81 -79 27 -166 58 -195 70 -62 24 -58
19 43 -50 100 -68 115 -85 133 -157 18 -69 21 -199 6 -238 -12 -34 -66 -66
-109 -66 -18 0 -49 9 -67 20 -34 22 -101 116 -149 210 -16 30 -30 49 -33 42
-5 -15 32 -110 66 -171 l25 -43 -33 17 c-18 9 -84 49 -146 89 -146 92 -285
169 -292 161 -3 -3 9 -36 26 -73 33 -70 84 -271 103 -407 10 -71 7 -144 -8
-181 -7 -19 -67 -34 -137 -34 -53 0 -64 4 -122 46 -113 80 -191 152 -232 214
-23 33 -43 56 -47 50 -8 -14 18 -114 49 -183 14 -31 22 -57 19 -57 -3 0 -64
21 -137 46 -150 53 -301 122 -398 182 -131 81 -57 10 118 -113 67 -47 127 -92
134 -100 23 -28 -53 -276 -165 -540 l-17 -40 -18 35 c-10 19 -46 64 -80 100
-60 64 -61 64 -30 17 45 -68 78 -145 84 -197 5 -38 2 -51 -22 -85 -67 -97
-153 -95 -329 6 -138 79 -305 182 -365 226 -27 19 -48 30 -48 24 0 -24 199
-221 262 -259 15 -8 29 -25 32 -36 8 -28 7 -145 0 -173 -9 -31 -32 -30 -202
12 -131 33 -294 95 -379 145 -40 24 -41 15 -5 -36 37 -51 86 -93 145 -124 26
-14 47 -28 47 -32 0 -13 -90 -96 -144 -132 -60 -40 -189 -94 -243 -103 -34 -6
-35 -5 -29 23 12 59 46 345 66 544 40 410 65 876 75 1415 3 165 8 310 11 322
l4 23 57 -30 c94 -50 174 -36 208 37 18 37 16 69 -10 149 l-7 21 54 -18 c124
-42 269 -33 352 23 55 36 100 102 116 169 14 57 5 76 -19 39 -35 -54 -108
-123 -156 -148 -41 -22 -62 -26 -120 -25 -84 2 -242 41 -314 78 -29 14 -55 25
-57 22 -2 -2 14 -44 36 -93 59 -132 53 -189 -18 -189 -41 0 -102 37 -121 73
-5 10 -11 74 -12 142 -3 151 -23 348 -36 361 -7 7 -77 -35 -194 -113 -264
-177 -399 -250 -554 -303 -60 -20 -176 -45 -171 -36 2 3 29 45 59 93 64 103
138 268 171 382 l24 81 48 7 c27 4 106 14 177 23 158 20 339 65 424 106 100
48 149 131 108 185 -21 27 -20 29 28 44 103 31 221 112 280 191 46 64 49 93 5
46 -36 -36 -158 -122 -223 -154 -22 -11 -86 -35 -142 -54 -101 -33 -102 -33
-73 -46 67 -27 61 -107 -11 -143 -54 -28 -187 -65 -339 -95 -150 -29 -232 -32
-250 -10 -7 8 -19 15 -26 15 -8 0 -14 5 -14 10 0 23 -98 114 -194 179 -255
173 -511 309 -706 376 -58 19 -112 38 -120 41 -8 4 27 15 79 26 306 63 600
231 1246 714 331 247 573 458 1115 974 445 423 579 535 878 731 202 134 491
279 683 344 150 50 192 59 372 75 158 14 403 54 531 86 413 104 731 224 1186
450 388 192 606 331 910 583 154 127 475 450 583 585 108 136 241 324 287 407
46 83 114 169 150 192 77 49 119 -4 146 -183 20 -139 15 -436 -10 -572 -18
-96 -45 -148 -170 -318 -71 -98 -401 -439 -558 -578 -48 -42 -83 -78 -78 -80
6 -2 34 4 62 13 199 65 483 288 658 515 l65 85 -76 -63 c-42 -34 -110 -93
-150 -130 -212 -192 -289 -243 -136 -88 271 272 469 534 491 651 18 96 27 330
16 459 -13 170 -25 225 -61 298 -65 130 -188 148 -305 46 -31 -28 -212 -289
-226 -328 -8 -22 -141 -199 -233 -310 -108 -131 -352 -372 -519 -512 -259
-219 -503 -379 -836 -547 -377 -191 -708 -326 -1018 -415 -242 -70 -365 -95
-727 -146 -263 -37 -303 -45 -425 -87 -199 -69 -470 -208 -700 -361 -299 -198
-396 -279 -890 -747 -628 -596 -842 -777 -1315 -1114 -414 -296 -579 -394
-795 -474 -158 -58 -241 -72 -438 -70 -159 1 -182 4 -308 34 l-135 34 -69 140
c-114 233 -170 424 -190 650 -12 132 -4 242 30 420 67 354 182 672 432 1200
53 110 109 229 126 265 17 36 56 107 86 159 97 166 205 441 256 656 36 149 76
423 90 615 17 237 40 426 59 498 11 37 42 121 70 188 65 156 97 280 121 473
58 471 52 906 -16 1256 -37 191 -148 460 -263 637 -83 128 -86 131 -141 114
-174 -53 -389 -196 -569 -375 -191 -191 -300 -378 -435 -743 -10 -27 -20 -48
-23 -48 -3 0 -33 21 -67 46 -82 62 -158 99 -296 144 -124 41 -229 64 -350 76
l-75 7 -50 76 c-28 41 -71 91 -95 109 -29 22 -48 45 -53 66 -9 37 -19 160 -46
561 -46 665 -110 1276 -167 1590 -15 83 -31 148 -33 134z m39 -1079 c11 -146
28 -337 36 -425 9 -88 20 -248 25 -355 5 -107 14 -229 19 -270 26 -186 26
-194 -8 -236 -65 -81 -80 -260 -33 -385 28 -73 86 -168 135 -220 l40 -41 17
-157 c10 -86 34 -289 54 -451 62 -505 59 -464 37 -512 -27 -60 -112 -144 -173
-173 -29 -13 -83 -29 -120 -36 -161 -29 -340 56 -411 195 -24 48 -23 87 16
411 13 116 37 324 52 463 l27 254 49 50 c52 54 128 197 149 281 26 108 -4 272
-63 334 -20 21 -20 26 -9 130 18 171 32 403 26 413 -3 5 1 62 10 127 16 125
84 864 86 936 1 41 2 40 10 -13 4 -30 17 -174 29 -320z m-2178 -738 c51 -26
129 -74 173 -106 106 -78 308 -282 372 -376 85 -126 171 -310 278 -598 15 -41
33 -76 40 -78 7 -3 51 24 98 59 202 154 431 242 663 254 l121 6 5 -79 c5 -81
35 -184 71 -242 23 -39 22 -58 -18 -377 -73 -585 -87 -717 -81 -749 7 -39 60
-122 115 -179 129 -137 411 -154 576 -36 25 18 67 64 93 102 l47 70 -2 131
c-1 72 -16 243 -33 381 -16 138 -40 332 -51 431 l-21 182 30 63 c43 92 62 163
62 237 l0 65 118 -6 c246 -11 503 -113 703 -279 26 -21 52 -38 58 -38 13 0 16
6 121 270 88 220 149 337 240 458 75 100 211 232 330 322 93 70 256 160 289
160 37 0 179 -270 239 -451 84 -259 116 -488 115 -819 -1 -434 -56 -795 -160
-1045 -96 -233 -104 -275 -128 -640 -15 -243 -51 -510 -85 -647 -31 -122 -112
-360 -158 -463 -60 -135 -148 -286 -187 -321 -56 -50 -142 -89 -255 -118 -174
-44 -403 -137 -507 -206 -91 -61 -191 -170 -267 -290 -79 -124 -109 -179 -242
-453 -94 -194 -103 -205 -225 -267 -86 -44 -144 -60 -272 -73 -94 -10 -142
-10 -237 -1 -161 17 -239 43 -356 120 -58 39 -96 100 -198 319 -58 127 -177
344 -229 420 -39 56 -162 177 -221 217 -112 77 -322 164 -521 216 -219 58
-268 100 -384 331 -167 332 -255 681 -291 1156 -18 247 -41 434 -60 504 -10
36 -41 122 -70 191 -65 157 -95 272 -119 458 -32 238 -44 455 -38 684 7 326
44 553 124 768 67 179 195 410 228 410 8 0 56 -21 107 -48z m2019 -627 c29
-65 35 -157 15 -234 -19 -75 -73 -180 -120 -236 -31 -35 -36 -38 -49 -25 -28
29 -57 141 -57 217 0 78 30 177 71 235 22 30 94 88 111 88 5 0 18 -20 29 -45z
m308 30 c44 -22 97 -90 127 -164 39 -94 39 -188 0 -293 -16 -45 -34 -78 -42
-78 -35 0 -153 209 -172 304 -12 60 0 152 29 207 22 45 21 44 58 24z m-1644
-3970 c321 -121 495 -261 570 -458 27 -73 60 -225 51 -234 -4 -4 -23 9 -44 29
-93 88 -274 216 -485 344 -78 47 -124 86 -232 195 -74 74 -135 144 -135 154 0
16 8 17 88 13 68 -4 109 -14 187 -43z m3195 25 c0 -12 -51 -70 -132 -150 -116
-114 -152 -143 -286 -227 -175 -109 -342 -228 -419 -298 l-53 -47 0 34 c0 54
37 186 72 257 40 84 168 217 262 276 78 47 282 136 367 159 30 8 84 15 122 15
60 1 67 -1 67 -19z m-3108 -484 c42 -15 185 -106 278 -177 109 -83 205 -174
270 -256 139 -175 334 -313 530 -375 69 -21 92 -23 295 -23 203 0 226 2 295
23 205 65 379 191 556 403 142 170 457 400 568 415 66 9 76 -5 76 -110 0 -97
-10 -143 -84 -395 -31 -106 -71 -261 -88 -345 -29 -137 -32 -167 -32 -331 0
-127 5 -208 18 -275 20 -114 110 -387 165 -502 22 -45 38 -84 36 -86 -1 -2
-52 6 -111 17 -372 69 -645 91 -1224 98 -725 9 -1178 -22 -1595 -107 -49 -10
-91 -17 -93 -16 -1 2 22 56 52 122 118 261 167 477 169 739 1 125 -4 188 -22
288 -31 176 -73 343 -125 501 -65 193 -80 303 -52 371 13 30 20 35 48 35 18
-1 49 -7 70 -14z m2038 -2036 c543 -34 1088 -143 1660 -332 269 -89 594 -261
837 -444 85 -64 93 -82 69 -168 -65 -231 -191 -476 -385 -747 -22 -31 1 -22
80 30 63 41 84 49 141 55 213 21 466 131 753 327 l100 68 7 -32 c25 -116 16
-967 -17 -1537 -52 -890 -154 -1553 -310 -2010 -138 -402 -410 -831 -835
-1315 -173 -197 -593 -618 -990 -993 -417 -393 -791 -766 -911 -907 -195 -228
-477 -597 -719 -938 -69 -97 -128 -176 -132 -177 -3 0 -61 78 -129 172 -286
402 -605 814 -785 1013 -147 163 -358 371 -764 754 -607 572 -992 967 -1245
1276 -377 460 -604 867 -720 1291 -116 421 -191 926 -239 1594 -38 522 -61
1356 -44 1625 6 99 12 181 13 183 1 1 38 -22 81 -51 194 -134 391 -240 532
-287 99 -33 225 -60 276 -60 26 0 55 -14 111 -52 41 -28 78 -49 81 -45 4 3
-25 50 -64 104 -92 128 -155 236 -207 353 -55 122 -109 271 -125 338 l-12 54
33 35 c63 66 372 260 574 361 206 103 469 188 910 297 453 112 794 158 1305
175 270 9 842 4 1070 -10z"/>
<path d="M9011 18018 c7 -13 38 -61 69 -108 96 -144 143 -239 200 -409 62
-185 87 -218 77 -103 -14 174 -141 432 -285 585 -57 59 -81 73 -61 35z"/>
<path d="M12724 17988 c-110 -117 -199 -269 -249 -423 -39 -118 -57 -235 -36
-235 15 0 35 47 67 162 33 117 103 263 193 401 39 59 75 116 81 127 19 36 -6
21 -56 -32z"/>
<path d="M8667 16203 c-4 -3 15 -21 41 -39 69 -46 140 -128 153 -177 8 -28 9
-93 5 -197 -15 -374 98 -678 337 -907 97 -93 138 -112 310 -146 105 -20 111
-20 241 -4 113 13 141 14 183 3 117 -31 135 -63 144 -251 10 -223 54 -303 197
-360 37 -15 82 -36 100 -47 39 -24 103 -130 134 -224 l23 -69 3 57 c2 41 -4
78 -24 135 -45 133 -73 171 -181 244 -88 60 -136 107 -163 159 -18 35 -20 59
-20 244 0 158 -4 230 -20 320 -68 399 -193 662 -420 886 -172 169 -345 266
-592 329 -150 39 -429 66 -451 44z m574 -189 c213 -63 462 -290 597 -544 63
-119 104 -257 110 -373 4 -91 3 -101 -23 -151 -61 -121 -132 -158 -305 -157
-208 0 -307 42 -430 183 -153 176 -226 347 -248 578 -15 162 15 330 73 406 31
40 94 73 141 74 17 0 55 -7 85 -16z"/>
<path d="M12890 16200 c-93 -10 -198 -32 -310 -66 -238 -72 -469 -236 -626
-443 -119 -156 -234 -425 -285 -666 -18 -82 -23 -149 -28 -366 l-6 -266 -28
-40 c-29 -43 -70 -78 -152 -133 -69 -46 -113 -89 -135 -130 -35 -68 -71 -204
-68 -256 l3 -49 23 70 c31 93 93 195 134 222 18 11 68 35 110 53 137 56 175
128 188 355 8 152 16 181 62 215 59 44 116 51 263 33 145 -18 202 -13 350 29
96 27 138 53 223 141 82 83 90 94 166 222 63 106 95 192 126 335 20 91 23 130
21 298 -1 108 3 210 9 232 12 46 85 129 152 174 26 18 45 36 41 39 -8 9 -134
7 -233 -3z m-184 -189 c23 -10 53 -34 68 -53 61 -80 91 -244 76 -413 -20 -218
-96 -394 -247 -568 -127 -147 -224 -189 -435 -188 -172 0 -229 30 -304 158
-25 42 -28 56 -28 133 1 68 8 105 34 185 36 111 110 265 162 337 138 193 362
370 521 413 71 19 105 18 153 -4z"/>
<path d="M10889 10203 c-11 -177 -14 -671 -14 -2628 l0 -2410 23 -269 c12
-149 24 -271 26 -273 1 -2 9 68 16 154 11 126 15 656 17 2628 4 2435 4 2474
-17 2735 -12 146 -25 269 -29 273 -4 4 -14 -90 -22 -210z"/>
<path d="M8830 8819 c0 -25 4 -28 68 -39 87 -15 146 -41 169 -76 17 -27 18
-64 18 -659 0 -583 -1 -632 -18 -662 -22 -41 -56 -59 -154 -81 -70 -16 -78
-20 -81 -42 l-3 -25 641 0 c633 0 641 0 645 20 3 11 12 61 21 110 8 50 27 137
40 195 23 99 24 105 7 117 -30 23 -42 14 -78 -57 -68 -134 -157 -235 -242
-271 -59 -25 -159 -38 -288 -38 -138 0 -183 10 -217 48 l-28 32 2 650 3 651
36 33 c36 32 43 35 181 61 14 3 29 12 32 20 15 39 10 40 -379 40 l-375 0 0
-27z"/>
<path d="M12282 8777 c-57 -32 -75 -121 -36 -174 72 -96 217 -46 217 75 0 39
-4 49 -36 79 -30 27 -45 33 -79 33 -24 -1 -53 -6 -66 -13z"/>
<path d="M12395 8255 c-35 -29 -144 -76 -233 -101 -58 -16 -63 -20 -60 -43 2
-20 10 -27 37 -32 55 -11 81 -30 92 -68 7 -23 9 -145 7 -336 -4 -354 -1 -343
-100 -373 -54 -15 -63 -22 -66 -43 l-3 -25 281 0 281 0 -3 25 c-3 21 -11 27
-58 38 -79 20 -106 52 -116 140 -4 37 -3 214 1 393 4 179 8 352 9 385 1 53 -1
60 -19 62 -11 2 -33 -8 -50 -22z"/>
<path d="M510 15326 c20 -52 115 -233 162 -310 69 -110 228 -323 317 -423 40
-46 71 -83 69 -83 -2 0 -52 24 -110 54 -58 29 -132 63 -164 74 -33 12 -101 37
-152 57 -99 38 -252 75 -315 75 -28 0 -45 -7 -64 -26 -25 -25 -25 -29 -20
-112 5 -98 14 -121 119 -345 79 -169 156 -306 230 -413 l50 -71 91 -28 c51
-14 166 -51 257 -81 192 -63 372 -115 378 -109 11 11 -326 154 -470 200 -65
20 -129 46 -142 56 -90 71 -382 623 -404 764 -9 53 -8 55 14 55 70 0 307 -79
535 -178 63 -27 146 -61 184 -75 39 -13 147 -60 240 -102 232 -105 231 -105
150 -33 -217 193 -411 403 -576 625 -55 72 -99 134 -99 136 0 3 57 -33 126
-80 69 -46 160 -101 202 -122 87 -43 234 -94 257 -89 9 2 -44 35 -117 73 -165
87 -432 263 -518 342 -75 68 -227 193 -234 193 -3 0 -1 -11 4 -24z"/>
<path d="M21215 15274 c-286 -238 -396 -316 -621 -438 -178 -96 -199 -111
-124 -90 169 49 257 92 430 208 134 91 138 93 124 75 -6 -8 -49 -66 -96 -129
-168 -229 -372 -448 -613 -659 -28 -24 -45 -41 -40 -38 62 32 393 177 470 207
55 21 141 56 190 77 195 86 459 173 526 173 47 0 14 -101 -127 -385 -73 -149
-140 -268 -188 -337 l-75 -106 -143 -47 c-79 -26 -165 -58 -193 -70 -27 -12
-99 -44 -160 -70 -104 -45 -156 -75 -110 -63 102 27 210 60 445 135 l274 89
69 100 c72 104 269 491 306 601 14 43 21 88 21 143 0 130 -29 142 -231 96 -93
-21 -163 -46 -364 -128 -27 -11 -90 -41 -140 -65 -60 -30 -85 -39 -75 -27 8
10 43 52 78 92 86 100 222 284 294 398 62 98 174 321 167 329 -3 2 -45 -29
-94 -71z"/>
<path d="M1761 14075 c-117 -26 -168 -68 -192 -158 -12 -45 -5 -122 17 -196
29 -98 163 -262 312 -383 145 -116 382 -259 564 -339 43 -19 78 -37 78 -40 0
-4 -22 -9 -49 -13 -72 -9 -182 -49 -306 -111 -309 -152 -361 -296 -182 -507
76 -89 177 -155 334 -216 329 -129 592 -174 820 -140 92 13 78 22 -52 32 -171
13 -519 96 -666 160 -175 75 -329 189 -399 293 -34 52 -39 100 -14 139 26 39
168 127 301 188 133 60 195 80 377 121 107 25 118 29 101 41 -10 8 -23 14 -27
14 -39 0 -466 225 -638 337 -231 150 -418 343 -456 471 -44 146 5 200 201 217
107 9 432 -20 550 -49 106 -26 319 -97 368 -122 53 -28 38 -7 -25 34 -127 82
-361 175 -548 217 -105 23 -384 29 -469 10z"/>
<path d="M19695 14084 c-145 -22 -366 -88 -510 -153 -63 -29 -205 -116 -205
-126 0 -3 17 2 38 11 85 38 324 113 417 132 143 29 438 46 540 32 109 -16 142
-31 161 -75 22 -54 3 -148 -46 -224 -51 -79 -167 -199 -265 -277 -161 -125
-498 -320 -718 -415 -59 -26 -111 -49 -114 -52 -2 -3 31 -13 74 -22 179 -38
284 -70 394 -120 226 -101 333 -175 345 -240 19 -102 -210 -306 -446 -399
-159 -63 -485 -140 -635 -151 -44 -3 -96 -9 -115 -12 l-35 -6 35 -9 c19 -5
100 -11 180 -14 138 -6 152 -5 285 25 182 41 383 109 515 173 90 43 117 62
185 132 97 98 135 166 135 243 0 76 -18 110 -91 177 -107 97 -414 236 -522
236 -15 0 -27 5 -27 10 0 6 6 10 13 10 7 0 85 36 174 80 280 139 516 313 658
485 75 91 110 157 125 234 30 161 -16 257 -143 297 -51 16 -329 28 -402 18z"/>
<path d="M3705 13939 c-180 -24 -408 -87 -551 -154 -251 -117 -370 -237 -382
-386 -15 -199 250 -325 838 -398 138 -17 408 -41 472 -41 15 0 13 -7 -12 -47
-75 -118 -64 -232 26 -285 42 -25 154 -48 233 -48 l63 0 -30 -35 c-106 -120
23 -279 276 -342 102 -26 342 -23 445 5 83 23 219 83 201 89 -6 2 -48 -6 -95
-17 -107 -27 -338 -38 -443 -21 -90 15 -229 70 -269 108 -39 37 -59 85 -48
115 13 34 78 91 146 129 l60 34 -150 6 c-397 16 -454 85 -266 321 l59 75 -217
7 c-282 8 -473 28 -651 65 -345 74 -540 175 -540 281 0 75 102 198 226 273
103 62 274 131 459 186 88 26 143 39 300 67 l40 7 -30 7 c-39 10 -75 9 -160
-1z"/>
<path d="M17950 13941 l-35 -7 45 -8 c320 -53 643 -169 816 -292 105 -74 163
-158 164 -236 0 -104 -178 -199 -506 -272 -220 -48 -506 -76 -786 -76 l-118 0
60 -71 c65 -78 110 -159 110 -199 0 -83 -98 -117 -370 -129 l-145 -6 60 -35
c82 -48 145 -112 145 -148 0 -34 -37 -86 -82 -117 -49 -33 -167 -75 -245 -87
-104 -16 -340 -4 -441 22 -46 12 -86 19 -89 16 -10 -9 117 -64 202 -87 113
-31 345 -32 456 -1 141 38 243 102 279 173 29 56 26 108 -9 156 l-29 41 81 4
c166 10 267 61 283 143 9 49 -13 128 -51 185 l-32 48 101 7 c278 17 579 57
766 99 284 65 442 165 466 294 16 83 -59 222 -159 297 -97 73 -317 177 -448
213 -222 60 -412 89 -489 73z"/>
<path d="M689 13733 c14 -28 131 -162 233 -269 51 -53 84 -94 73 -91 -58 18
-185 31 -310 31 -360 1 -507 -116 -408 -324 60 -126 232 -337 297 -364 17 -7
67 -22 111 -34 298 -79 500 -112 670 -111 l110 1 -115 23 c-278 55 -342 69
-450 95 -196 47 -225 61 -312 151 -144 149 -248 310 -234 363 8 34 61 60 159
80 141 29 333 17 530 -34 64 -16 123 -30 132 -30 9 0 42 -20 73 -44 68 -51
194 -124 278 -159 80 -34 248 -84 310 -92 48 -6 45 -4 -71 58 -325 173 -521
316 -745 541 l-105 106 75 -25 c172 -59 460 -130 460 -115 0 5 -30 18 -67 31
-38 12 -93 33 -123 46 -88 39 -245 91 -386 128 -72 19 -143 39 -158 45 -36 13
-38 13 -27 -7z"/>
<path d="M21080 13734 c-25 -7 -81 -23 -125 -33 -97 -24 -311 -94 -380 -125
-27 -13 -85 -35 -127 -51 -43 -15 -78 -31 -78 -35 0 -15 367 80 483 125 20 8
37 11 37 6 0 -12 -221 -224 -306 -292 -158 -129 -343 -248 -553 -356 -124 -64
-108 -68 75 -18 154 42 334 127 444 209 41 31 84 56 95 56 11 0 69 14 129 30
203 55 433 64 579 22 80 -23 107 -44 107 -84 0 -63 -92 -201 -228 -341 l-86
-87 -110 -36 c-60 -19 -155 -44 -210 -55 -56 -11 -162 -33 -236 -49 -74 -16
-157 -34 -185 -39 -40 -8 -19 -9 100 -6 151 4 295 24 450 63 44 12 112 28 150
38 147 36 168 47 252 145 136 157 213 292 213 371 0 53 -37 115 -83 142 -138
79 -395 95 -662 40 -26 -5 -18 6 71 98 85 87 142 151 233 261 17 20 11 20 -49
1z"/>
<path d="M4390 13600 c-76 -14 -117 -36 -138 -77 -18 -33 -15 -49 20 -88 50
-57 200 -123 400 -175 l87 -23 -34 -40 c-74 -86 -58 -206 43 -318 67 -74 108
-92 222 -96 95 -3 95 -3 45 10 -65 17 -145 59 -190 99 -73 64 -103 173 -67
244 23 45 57 84 96 109 14 10 25 19 23 21 -2 2 -89 29 -193 59 -104 31 -217
69 -252 86 -102 50 -116 111 -34 147 27 11 68 15 152 15 109 -1 113 0 81 14
-39 17 -196 24 -261 13z"/>
<path d="M17213 13600 c-91 -19 -78 -28 38 -27 130 1 184 -16 195 -60 17 -64
-63 -109 -336 -188 l-199 -58 40 -29 c118 -86 131 -223 32 -329 -50 -53 -140
-103 -213 -119 -38 -8 -31 -9 50 -7 122 3 169 24 240 110 90 110 101 218 30
307 l-29 37 67 18 c110 29 293 95 345 123 131 71 128 177 -5 213 -55 14 -202
20 -255 9z"/>
<path d="M696 12593 c72 -59 176 -135 254 -185 172 -112 504 -283 635 -328
l50 -17 -68 -32 c-78 -37 -246 -168 -307 -239 -81 -95 -101 -205 -51 -284 51
-80 60 -83 261 -83 186 1 283 16 413 65 73 28 68 35 -9 15 -35 -9 -145 -20
-266 -26 l-207 -11 -36 29 c-19 15 -47 44 -60 63 -21 31 -23 40 -15 71 6 20
23 55 40 77 74 103 324 274 515 353 83 35 88 38 65 48 -14 5 -56 15 -95 21
-118 18 -251 69 -450 170 -184 93 -370 198 -363 205 2 2 48 0 103 -5 102 -7
270 -2 259 9 -3 3 -42 11 -87 17 -45 6 -163 23 -262 38 -99 15 -218 33 -264
40 l-84 13 29 -24z"/>
<path d="M21100 12610 c-19 -5 -78 -14 -130 -20 -52 -6 -173 -24 -269 -41 -96
-16 -189 -29 -205 -29 -17 0 -37 -4 -44 -9 -20 -12 140 -19 261 -10 56 4 103
6 104 5 2 -1 -52 -34 -120 -73 -334 -194 -549 -285 -724 -308 -28 -4 -59 -12
-68 -19 -14 -10 -4 -16 62 -44 80 -32 215 -106 313 -171 80 -52 210 -180 231
-226 30 -64 25 -83 -36 -142 -63 -61 -38 -57 -301 -43 -94 5 -199 16 -233 25
-79 20 -89 13 -19 -13 138 -51 234 -66 425 -67 l182 0 40 39 c57 56 77 111 62
173 -18 72 -47 122 -104 182 -76 78 -216 184 -280 212 -31 13 -57 26 -57 29 0
3 35 18 78 34 160 59 530 262 702 385 78 56 182 141 170 140 -3 -1 -21 -5 -40
-9z"/>
<path d="M3684 12201 c-226 -159 -332 -408 -241 -564 34 -57 113 -128 174
-157 128 -60 297 -99 459 -107 l130 -6 -40 -79 c-67 -130 -62 -244 13 -330
107 -121 378 -187 655 -160 68 7 138 17 156 22 19 5 35 8 37 7 1 -2 -2 -19 -7
-38 -6 -18 -10 -68 -10 -109 1 -132 64 -211 200 -247 85 -23 286 -22 388 1
230 51 458 169 576 297 73 79 74 105 1 45 -78 -63 -206 -139 -326 -192 -279
-124 -567 -122 -702 4 -54 51 -59 163 -11 291 l24 63 -33 -5 c-17 -3 -72 -13
-122 -23 -139 -27 -392 -26 -510 4 -109 27 -205 72 -239 113 -74 88 -21 251
108 334 56 35 217 104 295 125 32 8 41 14 33 22 -8 8 -37 7 -104 -5 -239 -42
-477 -46 -653 -12 -114 22 -258 72 -312 108 -26 18 -61 52 -78 75 -28 41 -30
50 -30 135 0 136 32 198 194 369 35 38 59 68 54 68 -6 0 -41 -22 -79 -49z"/>
<path d="M18140 12148 c137 -156 183 -265 161 -384 -6 -32 -21 -73 -34 -91
-33 -50 -111 -99 -211 -133 -232 -78 -500 -89 -825 -34 -63 11 -96 13 -103 6
-7 -7 5 -15 38 -25 160 -48 288 -112 345 -174 59 -63 83 -125 77 -198 -7 -83
-61 -134 -188 -174 -191 -61 -411 -66 -653 -14 -42 9 -80 13 -83 10 -4 -4 4
-32 17 -64 19 -46 24 -76 24 -148 0 -111 -17 -141 -106 -186 -124 -62 -333
-61 -524 2 -121 41 -304 136 -406 214 -46 34 -86 61 -88 60 -6 -7 38 -70 71
-101 266 -251 790 -379 1033 -251 100 52 147 181 114 313 -6 25 -10 46 -8 48
2 2 33 -2 69 -10 116 -24 283 -28 408 -10 304 45 451 165 427 350 -7 54 -41
138 -74 185 l-20 28 132 6 c241 12 460 80 573 179 76 67 112 170 94 266 -21
112 -106 253 -202 333 -48 39 -133 99 -142 99 -4 0 34 -46 84 -102z"/>
<path d="M4753 11951 c-54 -39 -111 -107 -118 -142 -15 -66 41 -142 142 -192
113 -57 350 -134 486 -157 l68 -12 -53 -32 c-66 -39 -102 -89 -94 -131 4 -16
22 -46 42 -66 86 -88 252 -132 489 -132 177 1 297 19 416 62 88 32 153 69 99
56 -14 -3 -50 -13 -80 -22 -86 -25 -411 -30 -559 -8 -213 31 -305 64 -317 112
-14 56 32 84 244 147 135 40 260 92 248 103 -2 3 -21 0 -43 -6 -65 -18 -242
-24 -353 -12 -130 14 -333 66 -475 121 -131 52 -195 105 -195 162 0 67 33 119
106 165 16 10 16 12 3 12 -9 1 -34 -12 -56 -28z"/>
<path d="M17024 11957 c52 -38 73 -66 86 -111 11 -41 10 -48 -11 -88 -20 -36
-37 -50 -106 -84 -98 -50 -227 -92 -389 -130 -105 -24 -140 -27 -289 -28 -109
0 -186 4 -214 13 -23 7 -45 10 -47 8 -13 -13 100 -61 228 -98 177 -51 241 -80
257 -116 29 -64 -56 -107 -285 -143 -120 -19 -166 -22 -339 -17 -166 4 -213 8
-274 26 -40 12 -75 20 -78 18 -2 -3 17 -14 42 -26 189 -89 452 -119 705 -80
184 28 320 113 320 201 0 33 -41 83 -98 119 l-43 27 43 7 c162 25 457 127 557
193 127 84 123 180 -13 292 -26 22 -56 40 -65 39 -11 0 -7 -7 13 -22z"/>
<path d="M2567 11685 c-136 -37 -150 -116 -42 -233 148 -160 434 -297 755
-362 128 -26 250 -36 250 -21 0 6 -9 11 -19 11 -49 0 -267 66 -399 121 -170
70 -242 108 -367 191 -107 72 -161 121 -174 159 -9 25 -6 31 19 53 34 28 88
42 230 60 l105 12 -53 12 c-69 16 -244 14 -305 -3z"/>
<path d="M18942 11690 c-53 -12 -47 -17 35 -24 149 -14 244 -42 267 -79 20
-32 -23 -86 -130 -164 -200 -145 -530 -290 -761 -334 -91 -17 -81 -33 15 -25
257 23 582 135 778 267 175 118 250 233 199 306 -27 39 -130 63 -259 62 -61
-1 -126 -5 -144 -9z"/>
<path d="M2190 11478 c-129 -45 -390 -100 -580 -122 l-195 -22 45 -23 c38 -21
53 -23 115 -18 116 10 335 48 425 74 8 2 -5 -7 -30 -21 -52 -29 -204 -80 -270
-90 -86 -14 -88 -17 -24 -43 260 -106 483 -161 681 -170 l142 -6 -29 -34 c-37
-42 -95 -155 -127 -248 -27 -79 -53 -226 -53 -298 0 -113 76 -170 277 -211
l81 -17 129 57 c70 31 162 78 203 106 64 42 71 45 45 18 -35 -37 -143 -111
-230 -157 -38 -20 -54 -34 -45 -37 30 -10 237 -26 344 -26 125 0 244 13 331
35 32 9 60 14 62 12 2 -3 -10 -40 -28 -83 -57 -145 -118 -350 -101 -342 4 2
48 24 97 49 50 25 115 54 145 64 30 10 59 21 65 26 12 12 -68 11 -120 -1 -22
-5 -41 -7 -44 -5 -7 8 60 177 121 305 33 69 61 127 63 129 2 1 64 -8 137 -22
73 -14 150 -29 170 -32 35 -5 37 -7 26 -30 -18 -39 -1 -95 41 -136 76 -72 198
-85 396 -44 134 28 377 116 362 131 -3 4 -42 -3 -85 -15 -279 -75 -530 -82
-603 -15 -24 21 -24 55 -1 82 9 12 55 37 102 57 130 55 131 56 75 47 -66 -9
-285 -5 -410 9 -102 11 -336 57 -427 84 -135 40 -81 -11 62 -59 95 -32 102
-36 78 -45 -44 -17 -190 -60 -241 -71 -72 -15 -280 -31 -330 -24 l-44 6 80 77
c85 81 146 156 191 233 49 84 23 73 -76 -31 -53 -55 -101 -101 -108 -101 -6 0
-47 -21 -91 -46 -78 -45 -182 -86 -252 -99 -41 -8 -187 18 -263 46 -81 31 -87
44 -69 164 23 155 72 282 159 418 45 70 82 101 136 116 61 18 180 79 180 92 0
6 -7 8 -16 5 -35 -13 -173 -45 -241 -55 -158 -24 -252 -13 -518 63 -233 65
-221 56 -132 98 94 45 210 123 262 177 43 45 37 48 -45 19z"/>
<path d="M19585 11453 c62 -57 195 -145 272 -180 55 -24 57 -26 33 -35 -47
-18 -305 -90 -390 -109 -155 -34 -326 -19 -555 48 -18 5 -18 4 -6 -11 19 -23
90 -58 172 -85 36 -12 75 -32 86 -44 58 -64 151 -239 181 -342 26 -87 46 -227
38 -259 -8 -33 -72 -61 -203 -88 -109 -22 -110 -22 -179 -3 -38 10 -125 47
-194 82 -113 57 -135 73 -222 161 -54 53 -98 92 -98 86 0 -31 114 -189 200
-275 l96 -97 -46 -6 c-57 -7 -252 10 -339 29 -75 17 -222 64 -233 74 -4 4 36
21 90 39 98 32 143 55 131 67 -4 3 -71 -10 -150 -29 -200 -49 -298 -64 -491
-76 -118 -8 -186 -7 -234 0 -36 6 -68 9 -70 7 -3 -2 37 -21 88 -42 91 -37 148
-80 148 -111 0 -24 -49 -63 -94 -75 -97 -26 -430 11 -585 66 -50 17 -54 4 -7
-19 167 -79 366 -129 521 -130 90 -1 106 2 157 27 75 37 102 79 96 148 -6 56
-14 51 112 69 41 6 107 19 146 29 l71 18 61 -126 c51 -106 132 -306 132 -326
0 -3 -9 -1 -21 5 -21 12 -159 27 -159 17 0 -3 29 -15 65 -27 35 -12 108 -44
160 -70 l95 -49 -6 27 c-17 77 -58 208 -93 297 -21 55 -38 101 -36 103 2 2 29
-4 61 -12 143 -36 357 -46 552 -26 156 17 156 16 87 52 -79 40 -180 108 -230
153 -45 41 -32 37 35 -11 44 -31 192 -105 294 -146 l50 -19 98 22 c120 27 195
63 225 108 67 100 -21 481 -149 644 l-30 37 90 0 c112 0 218 14 342 45 156 40
443 142 435 155 -2 4 -28 10 -57 14 -84 10 -332 96 -317 110 2 2 36 -4 76 -14
80 -21 169 -35 318 -52 97 -11 101 -10 148 13 l48 25 -133 13 c-73 7 -173 19
-223 27 -96 16 -372 83 -444 108 -67 24 -70 19 -16 -31z"/>
<path d="M5815 10004 c-27 -19 -108 -70 -180 -113 -271 -164 -461 -240 -606
-244 -80 -2 -83 -1 -98 25 -24 41 6 120 84 223 35 47 60 85 56 85 -17 0 -102
-63 -136 -102 -21 -22 -51 -69 -67 -105 -26 -54 -30 -73 -26 -120 4 -48 10
-61 37 -85 38 -34 57 -35 188 -9 129 26 255 71 381 137 137 72 207 120 319
221 126 114 151 159 48 87z"/>
<path d="M16028 9939 c208 -202 482 -342 754 -386 90 -14 107 -14 133 -2 122
59 35 322 -136 410 -53 27 -58 24 -23 -13 84 -91 134 -181 134 -243 0 -66 -42
-78 -184 -50 -153 29 -362 129 -632 301 -73 46 -136 84 -140 84 -5 -1 38 -46
94 -101z"/>
<path d="M15758 9930 c35 -80 37 -91 37 -185 -1 -114 -15 -153 -68 -185 -94
-58 -281 26 -397 179 -30 38 -56 69 -57 67 -2 -2 8 -48 21 -104 38 -158 50
-277 43 -446 -13 -305 -99 -572 -202 -620 -42 -20 -121 -20 -159 -1 -51 27
-40 8 18 -31 148 -98 261 -31 351 206 80 211 102 361 85 581 -5 68 -8 124 -7
126 2 1 32 -9 67 -24 90 -36 179 -41 251 -14 71 27 84 42 104 116 35 135 1
270 -100 390 -22 27 -21 20 13 -55z"/>
<path d="M6053 9963 c-45 -58 -58 -83 -78 -143 -25 -72 -24 -187 2 -254 15
-43 25 -53 68 -75 88 -44 202 -39 308 14 42 22 48 23 42 8 -13 -35 -18 -317
-6 -410 11 -90 79 -310 122 -395 45 -88 124 -148 196 -148 39 0 126 43 153 76
14 16 13 16 -17 1 -44 -23 -130 -22 -170 2 -127 78 -223 484 -192 816 8 94 42
273 64 340 3 11 -8 2 -27 -20 -152 -185 -316 -270 -422 -220 -92 44 -109 221
-36 382 16 35 27 63 25 63 -2 0 -16 -17 -32 -37z"/>
<path d="M6225 9021 c-43 -63 -140 -147 -208 -181 -72 -36 -123 -39 -161 -9
-15 11 -33 18 -41 15 -24 -9 -18 -54 11 -83 23 -23 31 -25 87 -21 38 2 81 13
111 27 99 48 243 215 234 272 -3 20 -6 18 -33 -20z"/>
<path d="M15550 9043 c0 -33 63 -128 123 -187 75 -74 161 -116 235 -116 46 0
58 4 83 29 33 33 34 40 16 65 -13 17 -15 17 -48 -3 -81 -50 -170 -12 -311 131
-62 62 -98 92 -98 81z"/>
</g>
</svg>
